<svg width="146" height="146" viewBox="0 0 146 146" fill="none" xmlns="http://www.w3.org/2000/svg">
<path opacity="0.25" d="M79.546 2.32815L85.1904 32.9857L85.8169 36.3875L88.4528 34.1472L112.21 13.951L137.066 43.1447L113.329 63.363L110.694 65.6082L113.954 66.7699L143.324 77.2381L130.46 113.357L101.078 102.917L97.8186 101.759L98.4414 105.162L104.055 135.825L66.3338 142.75L60.6896 112.093L60.0639 108.69L57.428 110.931L33.6688 131.127L8.81373 101.933L32.5511 81.7149L35.1862 79.4708L31.9256 78.308L2.55429 67.839L15.4186 31.7212L44.8024 42.161L48.0622 43.319L47.4385 39.9167L41.8249 9.25345L79.546 2.32815Z" fill="#B6A2D4" stroke="#B6A2D4" stroke-width="4"/>
</svg>
