<svg width="192" height="139" viewBox="0 0 192 139" fill="none" xmlns="http://www.w3.org/2000/svg">
<path opacity="0.15" d="M110.315 173.977L110.418 174.021L110.533 174.056L111.037 174.196C111.039 174.186 111.042 174.175 111.045 174.165L110.411 174L110.315 173.977ZM110.315 173.977L110.409 174.018L110.297 173.973L110.315 173.977ZM110.182 173.92L110.137 173.91L110.238 173.95L110.268 173.957L110.322 173.97L111.052 174.141L111.056 174.124L110.182 173.92ZM110.268 173.957L110.182 173.92M110.268 173.957L110.182 173.92M148.156 158.806L148.342 158.479L147.985 159.052L147.734 159.453C147.748 159.462 147.761 159.47 147.775 159.478L148.156 158.806ZM147.985 159.052L148.156 158.806M147.985 159.052L148.156 158.806M109.854 173.778L109.743 173.752L109.922 173.824L110.006 173.844L111.062 174.1C111.065 174.089 111.068 174.078 111.07 174.067L109.854 173.778ZM110.006 173.844L109.854 173.778M110.006 173.844L109.854 173.778M56.0223 160.067L55.6486 159.971L55.6474 159.97C55.6496 159.962 55.6516 159.953 55.653 159.945L55.6543 159.946L55.8042 159.971L56.2625 160.087L56.7582 160.212L56.254 160.126L56.0223 160.067ZM56.2625 160.087L56.0223 160.067M56.2625 160.087L56.0223 160.067M178.046 111.471L178.297 111.127L178.297 111.126L178.312 111.138L178.012 111.552L177.928 111.668L177.992 111.545L178.046 111.471ZM178.012 111.552L178.046 111.471M178.012 111.552L178.046 111.471M178.111 111.321L178.234 111.088C178.247 111.095 178.258 111.102 178.271 111.11L178.091 111.367L178.072 111.394L178.111 111.321ZM178.091 111.367L178.111 111.321M178.091 111.367L178.111 111.321M55.7938 160.048L55.637 160.021C55.6384 160.013 55.6395 160.004 55.6417 159.996L55.8612 160.053L55.926 160.071L55.7938 160.048ZM55.8612 160.053L55.7938 160.048M55.8612 160.053L55.7938 160.048M29.5016 72.3536L35.0761 71.9854L35.1755 73.4817L40.7504 73.1144L40.6498 71.6175L46.2252 71.2488L46.324 72.7465L51.8986 72.3782L51.8001 70.8815L51.7997 70.8806L57.3733 70.5126L57.4731 72.0099L60.2594 71.8261L62.3164 71.6904L61.5546 69.7747L60.5225 67.1784L59.1276 67.7325L57.0628 62.5412L58.4568 61.9874L56.3917 56.7951L54.998 57.3498L52.9316 52.157L52.9328 52.1575L54.3265 51.6029L52.2614 46.4106L50.8677 46.9653L50.8664 46.9647L48.8013 41.7725L48.8025 41.773L50.1966 41.2192L49.1636 38.6233C48.8323 37.7902 48.5459 36.9505 48.3022 36.1071L46.8615 36.5228C46.3339 34.697 45.9981 32.8525 45.843 31.0131L47.3363 30.8876C47.1861 29.106 47.2153 27.3291 47.4135 25.5812L45.9236 25.412C46.1353 23.5453 46.5291 21.7102 47.0948 19.9333L48.5242 20.3883C49.0626 18.6975 49.7646 17.0619 50.6193 15.5074L49.305 14.7846C50.2037 13.1502 51.2629 11.6008 52.4704 10.1623L53.6189 11.1258C54.7501 9.77823 56.0194 8.53468 57.415 7.41794L56.4782 6.24709C57.9196 5.09367 59.4891 4.0683 61.1774 3.1958L61.8661 4.52761C62.6457 4.12473 63.4524 3.75632 64.2848 3.42439C65.1172 3.09248 65.9561 2.80472 66.799 2.56065L66.3814 1.12069C68.2061 0.592256 70.0498 0.25623 71.8887 0.101144L72.0154 1.595C73.7961 1.44489 75.5724 1.47389 77.32 1.67291L77.4895 0.183901C79.3551 0.396345 81.1896 0.790341 82.9659 1.35712L82.5108 2.78652C84.2005 3.3257 85.835 4.02927 87.3889 4.88485L88.1108 3.57089C89.7442 4.47016 91.2931 5.52924 92.7312 6.73706L91.7678 7.88555C93.1147 9.01683 94.3592 10.2851 95.4761 11.6804L96.6452 10.7443C97.7984 12.1848 98.8238 13.7532 99.6972 15.44L98.3667 16.1293C98.6693 16.7138 98.9531 17.3135 99.2163 17.9279L99.4726 18.5469L100.509 21.1436L101.902 20.5871L103.976 25.781L102.583 26.3366L104.656 31.5309L106.049 30.9744L108.122 36.1677L106.73 36.7251L108.803 41.9181L110.197 41.3626L112.27 46.5559L110.877 47.1124L111.913 49.7091L112.678 51.6245L114.265 50.3073L116.414 48.5231L115.455 47.3683L115.454 47.3678L119.753 43.7992L119.754 43.7998L120.711 44.954L125.01 41.3854L124.051 40.2316L128.348 36.6625L128.35 36.6631L129.307 37.8173L133.606 34.2487L132.647 33.0949L136.946 29.5263L137.904 30.6802L140.052 28.8963C140.742 28.3237 141.452 27.7913 142.178 27.2989L141.337 26.0573C142.91 24.9914 144.56 24.1029 146.261 23.3874L146.842 24.7684C148.49 24.0754 150.189 23.5549 151.913 23.204L151.613 21.7359C153.454 21.3613 155.32 21.1696 157.185 21.1596L157.194 22.6584C158.967 22.649 160.74 22.8129 162.482 23.1465L162.763 21.673C164.595 22.0237 166.395 22.5535 168.136 23.2583L167.574 24.6485C169.205 25.3086 170.78 26.1312 172.273 27.1138L173.097 25.8611C174.638 26.8756 176.097 28.0521 177.449 29.3876L176.396 30.4541C177.02 31.071 177.62 31.7239 178.194 32.4129C178.767 33.1019 179.299 33.8111 179.792 34.5372L181.031 33.6952C182.099 35.2674 182.989 36.9172 183.705 38.6184L182.326 39.2001C183.02 40.8474 183.541 42.5464 183.893 44.2702L185.361 43.9698C185.736 45.81 185.929 47.6764 185.94 49.5411L184.442 49.551C184.452 51.3251 184.29 53.0974 183.957 54.84L185.429 55.1203C185.08 56.9527 184.552 58.7539 183.848 60.4956L182.459 59.934C181.8 61.5652 180.978 63.1408 179.997 64.6345L181.248 65.4571C180.234 66.9997 179.059 68.4602 177.724 69.8121L176.658 68.7591C176.195 69.2276 175.713 69.683 175.209 70.1231L174.699 70.5577L172.552 72.3456L173.51 73.4973L169.216 77.0727L168.257 75.9202L163.961 79.4951L164.92 80.6485L160.625 84.2231L159.665 83.0709L155.37 86.6454L156.329 87.798L152.034 91.3738L151.074 90.2203L148.927 92.0082L147.342 93.3265L149.084 94.4286L151.445 95.9221L152.246 94.6543L156.968 97.6402L156.167 98.908L160.889 101.894L161.69 100.626L166.412 103.612L166.413 103.613L165.61 104.88L170.332 107.866L171.134 106.599L175.856 109.584L175.055 110.853L177.415 112.345L177.472 112.382L177.476 112.384L177.514 112.409C178.268 112.89 178.99 113.401 179.679 113.942L180.603 112.762C182.095 113.931 183.443 115.227 184.642 116.625L183.506 117.601C184.667 118.954 185.682 120.409 186.542 121.939L187.847 121.204C188.766 122.837 189.521 124.55 190.102 126.318L188.678 126.787C189.231 128.468 189.62 130.201 189.839 131.957L191.326 131.772C191.556 133.618 191.606 135.49 191.473 137.359L189.978 137.253C189.853 139.003 189.557 140.751 189.084 142.471L190.528 142.867C190.039 144.643 189.373 146.39 188.521 148.084L187.183 147.411C186.789 148.193 186.354 148.963 185.876 149.719L185.876 149.72C185.399 150.476 184.891 151.2 184.355 151.891L185.538 152.81C184.377 154.306 183.088 155.659 181.697 156.863L180.716 155.731C179.369 156.897 177.92 157.917 176.395 158.784L177.136 160.086C175.508 161.012 173.799 161.772 172.035 162.36L171.561 160.939C169.883 161.498 168.153 161.893 166.399 162.119L166.59 163.606C164.746 163.843 162.876 163.902 161.008 163.777L161.108 162.281C159.358 162.164 157.61 161.876 155.89 161.411L155.498 162.857C153.721 162.378 151.972 161.72 150.276 160.878L150.944 159.536C150.16 159.146 149.387 158.716 148.63 158.243L148.123 159.053L147.824 159.509C147.818 159.505 147.812 159.501 147.806 159.497L148.587 158.216C148.58 158.211 148.572 158.207 148.564 158.202L148.565 158.202C148.55 158.193 148.537 158.187 148.527 158.181L148.514 158.172L146.15 156.681L145.348 157.95L140.621 154.968L141.422 153.7L136.695 150.719L135.894 151.987L131.167 149.006L131.967 147.738L127.24 144.757L126.439 146.025L121.712 143.044L122.512 141.776L120.149 140.285L118.404 139.185L117.895 141.184L117.205 143.892L118.658 144.262L117.28 149.678L115.826 149.308L114.447 154.724L115.9 155.094L114.522 160.51L113.068 160.141L111.688 165.556L113.143 165.927L111.764 171.342L110.309 170.973L109.62 173.68L109.617 173.693C109.615 173.704 109.612 173.714 109.611 173.721L109.615 173.721L109.587 173.787L109.559 173.896C109.288 174.929 108.961 175.932 108.58 176.903L109.973 177.449C109.148 179.557 108.087 181.522 106.83 183.323L105.602 182.466C104.385 184.209 102.974 185.79 101.406 187.184L102.401 188.303C100.734 189.786 98.9013 191.07 96.9435 192.128L96.2322 190.808C95.3045 191.31 94.3471 191.758 93.3657 192.149C92.0544 192.672 90.7003 193.094 89.3153 193.408L89.6469 194.869C86.7742 195.521 83.7746 195.734 80.7421 195.452L80.8817 193.959C79.4929 193.83 78.0957 193.592 76.7009 193.238L76.055 193.065C75.4124 192.885 74.7814 192.683 74.1631 192.46L73.654 193.87C71.8704 193.227 70.1841 192.418 68.6073 191.465L69.3818 190.183C67.8551 189.26 66.4369 188.196 65.1408 187.011L64.1297 188.117C62.7459 186.852 61.494 185.458 60.3893 183.959L61.5964 183.071C60.5457 181.646 59.6352 180.12 58.879 178.518L57.5224 179.158C56.7277 177.475 56.0951 175.713 55.6381 173.895L57.0925 173.529C56.6644 171.826 56.3997 170.073 56.3115 168.291L54.8143 168.364C54.7232 166.524 54.8103 164.655 55.0894 162.779L56.5718 163.001C56.6686 162.351 56.79 161.699 56.9361 161.048L57.09 160.398L57.1197 160.28L57.1212 160.257L57.7958 157.594L56.342 157.225L56.3407 157.224L57.713 151.81L59.1677 152.178L60.5396 146.762L59.0849 146.394L59.0836 146.393L60.4555 140.977L61.9106 141.347L63.2821 135.93L61.8278 135.563L61.8265 135.562L63.1993 130.146L64.6531 130.514L65.3397 127.807L65.8455 125.808L63.7883 125.941L61.0009 126.122L61.0972 127.619L55.5229 127.98L55.5238 127.979L55.4262 126.482L49.8519 126.843L49.9482 128.34L44.3729 128.701L44.3738 128.7L44.2775 127.204L38.7028 127.564L38.7986 129.062L33.2248 129.421L33.1285 127.925L30.3499 128.104L30.3508 128.104L30.3372 128.104L30.3501 129.125L30.3465 129.604L30.3456 129.604C30.3388 129.604 30.3318 129.604 30.3246 129.604L30.3255 129.604L30.2569 128.106C30.2462 128.106 30.2346 128.107 30.223 128.107L30.2239 128.107C29.332 128.161 28.4476 128.172 27.573 128.14L27.5181 129.637C25.6248 129.568 23.7734 129.311 21.9825 128.885L22.3295 127.427C20.5957 127.014 18.9219 126.433 17.3276 125.701L16.7012 127.062C14.9993 126.28 13.3834 125.336 11.8758 124.247L12.755 123.032C11.321 121.996 9.98974 120.822 8.78226 119.529L7.68566 120.551C6.41661 119.192 5.27744 117.707 4.28863 116.116L5.56197 115.326C4.636 113.836 3.85021 112.248 3.22342 110.579L1.81979 111.106C1.17261 109.383 0.686251 107.578 0.379957 105.707L1.85943 105.466C1.75331 104.818 1.6693 104.161 1.60968 103.497L1.55853 102.831C1.5002 101.939 1.48632 101.054 1.51425 100.178L0.0149519 100.131C0.0754104 98.2355 0.324277 96.3817 0.742321 94.5881L2.20159 94.9282C2.60634 93.1916 3.17995 91.5145 3.90491 89.9165L2.54025 89.2968C3.3145 87.5902 4.25105 85.969 5.33363 84.456L6.55422 85.3286C7.58412 83.8892 8.75193 82.5522 10.0401 81.3387L9.01201 80.2473C10.3665 78.9714 11.8471 77.8251 13.4345 76.8291L14.231 78.099C15.7178 77.1661 17.3035 76.3729 18.9704 75.7392L18.437 74.3381C20.1585 73.6836 21.9624 73.1899 23.8321 72.8765L24.0807 74.3543C24.9442 74.2096 25.8228 74.1057 26.7147 74.0442L26.6226 72.7005L26.6271 72.5484L26.6268 72.5475C26.6364 72.5478 26.6467 72.5476 26.657 72.547L26.6574 72.5479L26.755 74.045C26.778 74.0435 26.8021 74.0398 26.8275 74.0371L26.8282 74.0389C26.8533 74.0363 26.8797 74.0326 26.9071 74.0284L26.9068 74.0275L29.601 73.85L29.5016 72.3536ZM110.732 174.128L111.027 174.228C111.024 174.239 111.019 174.249 111.015 174.259L110.58 174.086L110.732 174.128ZM110.473 174.04L110.449 174.034L110.424 174.024L110.473 174.04ZM110.226 173.956L110.405 174.017L110.157 173.94L110.226 173.956ZM109.976 173.872L110.121 173.921L109.996 173.89L109.812 173.833L109.976 173.872ZM110.095 173.918L110.045 173.906L110.018 173.897L110.095 173.918ZM109.921 173.872L109.594 173.792C109.594 173.79 109.595 173.788 109.595 173.787L109.921 173.872ZM30.4185 129.307L30.4308 129.602L30.4176 129.603L30.4185 129.602L30.4089 129.394L30.4061 129.12L30.4185 129.307ZM30.3918 129.108L30.3975 129.602L30.3697 129.604L30.3645 129.203L30.3754 128.743L30.3918 129.108ZM30.3872 128.841L30.3884 128.905L30.3817 128.756L30.3872 128.841ZM30.3566 128.358L30.3551 128.489L30.3533 128.303L30.3566 128.358ZM26.7046 72.5396L26.7049 72.5405L26.7179 72.5889L26.7404 72.9248L26.6839 72.5457L26.6832 72.5439C26.6908 72.5428 26.6979 72.5414 26.7046 72.5396Z" stroke="#B6A2D4" stroke-width="3" stroke-dasharray="6 6"/>
</svg>
