<svg width="228" height="233" viewBox="0 0 228 233" fill="none" xmlns="http://www.w3.org/2000/svg">
<path d="M130.713 206.781L130.888 206.856L132.152 207.162C132.156 207.149 132.159 207.137 132.162 207.124L130.704 206.777C130.706 206.769 130.709 206.758 130.711 206.747L130.714 206.734L131.535 203.512L132.988 203.882L134.629 197.438L133.176 197.067L134.817 190.623L136.27 190.992L137.912 184.548L136.457 184.178L138.099 177.733L139.551 178.103L141.193 171.659L139.74 171.289L140.56 168.067L141.07 166.068L142.814 167.168L145.627 168.941L144.826 170.209L150.452 173.757L151.252 172.488L156.877 176.036L156.076 177.305L161.702 180.851L162.502 179.584L168.127 183.13L167.327 184.399L172.952 187.946L173.754 186.678L176.566 188.452L176.579 188.46C176.587 188.465 176.601 188.473 176.617 188.482L176.618 188.482C176.631 188.49 176.644 188.498 176.657 188.506L175.875 189.787C175.883 189.792 175.891 189.796 175.899 189.801L176.237 189.284L176.705 188.536C177.615 189.104 178.542 189.621 179.483 190.088L178.816 191.43C180.834 192.432 182.916 193.214 185.03 193.785L185.421 192.34C187.486 192.898 189.585 193.243 191.686 193.384L191.584 194.88C193.807 195.029 196.033 194.959 198.227 194.677L198.036 193.19C200.142 192.919 202.218 192.444 204.232 191.773L204.706 193.194C206.805 192.494 208.839 191.589 210.776 190.488L210.036 189.186C211.866 188.146 213.605 186.922 215.223 185.521L216.203 186.654C217.858 185.22 219.392 183.61 220.774 181.829L219.591 180.911C220.235 180.081 220.844 179.213 221.416 178.306L221.417 178.304L221.837 177.621C222.248 176.934 222.63 176.238 222.985 175.533L224.323 176.207C225.337 174.191 226.13 172.112 226.711 169.999L225.267 169.602C225.835 167.538 226.191 165.44 226.341 163.339L227.836 163.445C227.995 161.221 227.934 158.994 227.66 156.796L226.173 156.982C225.911 154.874 225.444 152.795 224.781 150.776L226.204 150.307C225.512 148.204 224.615 146.165 223.521 144.222L222.216 144.957C221.183 143.12 219.965 141.374 218.571 139.749L219.707 138.773C218.28 137.11 216.676 135.568 214.901 134.177L213.978 135.357C213.15 134.708 212.284 134.094 211.379 133.517L211.341 133.492L211.323 133.48L211.26 133.44L208.451 131.664L209.252 130.396L209.252 130.395L203.634 126.842L203.635 126.843L202.833 128.11L197.214 124.557L198.015 123.289L192.396 119.736L191.596 121.004L185.977 117.45L186.778 116.183L181.16 112.629L181.16 112.63L180.359 113.898L177.549 112.121L175.807 111.02L177.391 109.7L179.947 107.573L180.907 108.726L186.018 104.472L185.059 103.32L190.17 99.0655L191.129 100.218L196.24 95.9638L195.281 94.8112L200.392 90.557L201.351 91.7096L206.462 87.4553L205.503 86.3037L208.059 84.1764L208.671 83.6539C209.275 83.1257 209.855 82.5796 210.41 82.0173L211.476 83.0706C213.064 81.4619 214.462 79.7239 215.669 77.8882L214.418 77.0655C215.596 75.2724 216.583 73.3809 217.374 71.4228L218.763 71.9844C219.6 69.9121 220.228 67.7689 220.644 65.5887L219.173 65.308C219.572 63.2163 219.767 61.0889 219.754 58.9594L221.252 58.95C221.238 56.7308 221.009 54.5096 220.562 52.3197L219.095 52.6197C218.673 50.5506 218.046 48.5117 217.213 46.5343L218.593 45.9526C217.74 43.9283 216.682 41.965 215.412 40.0942L214.173 40.9362C213.581 40.0646 212.941 39.2138 212.253 38.3868L212.253 38.3859C211.565 37.559 210.845 36.7748 210.095 36.0343L211.147 34.9682C209.54 33.3794 207.804 31.9803 205.97 30.7733L205.146 32.0247C203.353 30.8451 201.462 29.8572 199.505 29.0647L200.067 27.6759C197.995 26.8373 195.853 26.2066 193.674 25.7894L193.393 27.2619C191.301 26.8614 189.174 26.6656 187.045 26.6769L187.036 25.1781C184.817 25.19 182.596 25.4174 180.406 25.8632L180.705 27.3313C178.636 27.7524 176.597 28.3776 174.619 29.2096L174.037 27.8286C172.013 28.6799 170.05 29.7376 168.178 31.0059L169.019 32.2476C168.147 32.8386 167.296 33.4777 166.468 34.1649L163.911 36.2873L162.953 35.1334L157.839 39.3795L158.797 40.5333L153.683 44.7803L152.724 43.6256L147.609 47.872L147.61 47.8725L148.569 49.0264L143.454 53.2725L142.496 52.1186L142.495 52.1181L137.38 56.3641L137.382 56.3647L138.34 57.5185L135.784 59.6418L134.197 60.959L133.432 59.0436L132.198 55.9538L133.591 55.3973L131.124 49.217L129.731 49.7735L127.264 43.5935L128.656 43.0374L126.188 36.8575L124.796 37.4136L122.329 31.2328L123.721 30.6775L121.255 24.4972L119.861 25.0528L118.628 21.9639C118.228 20.9652 117.785 19.997 117.301 19.0614L118.63 18.3724C117.591 16.365 116.371 14.4984 114.999 12.7841L113.83 13.7211C112.489 12.046 110.995 10.5229 109.379 9.1649L110.342 8.01731C108.631 6.57992 106.788 5.31867 104.844 4.2485L104.123 5.56246C102.257 4.53543 100.295 3.69174 98.2666 3.04453L98.7221 1.61604C96.608 0.941474 94.4251 0.471429 92.2048 0.218644L92.0366 1.7082C89.9386 1.46927 87.8057 1.43386 85.6679 1.61409L85.5415 0.121138C83.3531 0.305677 81.159 0.705219 78.9875 1.33414L79.4059 2.77373C78.3941 3.06674 77.3867 3.41172 76.3876 3.81011C75.3884 4.20854 74.4203 4.65127 73.4843 5.13495L72.7956 3.80315C70.7866 4.84143 68.919 6.06171 67.2038 7.43431L68.1411 8.6039C66.4656 9.94461 64.942 11.438 63.5841 13.0557L62.4356 12.0922C60.9987 13.804 59.7382 15.6476 58.6688 17.5925L59.9831 18.3153C58.9571 20.1812 58.1146 22.1445 57.4684 24.1741L56.039 23.719C55.3658 25.8333 54.8973 28.0168 54.6454 30.2379L56.1353 30.4071C55.8974 32.5054 55.8616 34.6386 56.042 36.7775L54.5495 36.9027C54.7341 39.0916 55.1336 41.2864 55.7615 43.4592L57.2009 43.0429C57.4934 44.0553 57.8382 45.0631 58.2358 46.0629L59.4643 49.1518L58.0706 49.7064L60.5277 55.8842L61.9217 55.3304L64.3788 61.5082L62.9851 62.0628L65.4418 68.2397L65.4431 68.2402L66.8368 67.6856L69.2942 73.8642L67.9001 74.418L67.8989 74.4174L70.3563 80.5961L71.7512 80.042L72.9798 83.1308L73.7415 85.0465L71.6846 85.1823L68.3688 85.4015L68.2691 83.9043L61.6363 84.3423L61.7357 85.8387L55.103 86.2767L55.0036 84.7803L55.0032 84.7794L48.3705 85.2175L48.4703 86.7147L41.8375 87.1528L41.7378 85.6555L35.105 86.0935L35.2048 87.5908L31.9746 87.8033L31.9757 87.806C31.9545 87.8092 31.9333 87.8107 31.9133 87.813L31.9137 87.8139C31.8798 87.8179 31.8475 87.8209 31.8174 87.8229L31.7198 86.3258L31.7191 86.324C31.7069 86.3247 31.6949 86.3248 31.6836 86.3245L31.6843 86.3263L31.6777 86.5129L31.7688 87.8223C30.6981 87.8961 29.6434 88.0211 28.6067 88.1948L28.3577 86.716C26.1329 87.089 23.9868 87.6779 21.9384 88.4567L22.4724 89.8565C20.4713 90.6173 18.5675 91.569 16.7828 92.6888L15.9853 91.4192C14.0965 92.6044 12.3348 93.9685 10.7231 95.4867L11.7521 96.5777C10.2057 98.0344 8.8026 99.6392 7.56625 101.367L6.34694 100.495C5.05867 102.296 3.94365 104.224 3.02232 106.255L4.38662 106.874C3.51616 108.793 2.82834 110.807 2.34236 112.892L0.882738 112.551C0.385313 114.685 0.089813 116.891 0.0178622 119.146L1.51625 119.194C1.48273 120.245 1.50047 121.307 1.57048 122.378L1.63181 123.178C1.70338 123.975 1.80418 124.763 1.93156 125.541L0.452084 125.783C0.81651 128.008 1.39578 130.155 2.16573 132.205L3.56845 131.679C4.32095 133.682 5.26458 135.589 6.37619 137.378L5.10376 138.168C6.28036 140.061 7.63489 141.829 9.14492 143.446L10.2415 142.423C11.6909 143.976 13.2889 145.384 15.0101 146.628L14.1309 147.843C15.9249 149.139 17.8477 150.262 19.8728 151.193L20.4992 149.831C22.4131 150.711 24.4229 151.408 26.5045 151.904L26.1562 153.361C28.2873 153.869 30.4905 154.174 32.7434 154.257L32.7992 152.759C33.8493 152.798 34.9112 152.785 35.9819 152.72L35.9809 152.721C35.993 152.72 36.0046 152.719 36.0158 152.718L36.0847 154.217L36.0838 154.218C36.092 154.217 36.0998 154.217 36.1075 154.217L36.1084 154.216L36.114 153.647L36.1014 152.717L36.118 152.716L36.1197 152.91L36.1224 152.717L36.1255 152.717L39.4381 152.503L39.5344 153.999L46.1668 153.571L46.1677 153.571L46.0714 152.074L52.7047 151.645L52.8001 153.142L59.4339 152.712L59.3376 151.216L65.9709 150.787L66.0672 152.283L72.7004 151.855L72.6041 150.358L75.9208 150.144L77.9775 150.01L77.4718 152.008L76.6559 155.23L75.2015 154.863L73.5697 161.306L75.0235 161.675L73.3921 168.119L71.9374 167.751L70.3047 174.195L71.7594 174.563L70.128 181.008L68.6733 180.64L67.0418 187.084L68.4956 187.453L67.6872 190.643L67.6852 190.672L67.6555 190.79L67.4708 191.571C67.2955 192.353 67.1502 193.134 67.0341 193.914L65.5508 193.693C65.2187 195.925 65.1159 198.149 65.2242 200.339L66.7202 200.265C66.8261 202.404 67.1444 204.509 67.6584 206.554L66.2049 206.919C66.7487 209.082 67.5013 211.18 68.447 213.182L69.8036 212.543C70.7113 214.465 71.8041 216.296 73.0651 218.006L71.8575 218.896C73.1718 220.679 74.6621 222.336 76.3085 223.841L77.3199 222.737C78.8759 224.159 80.5788 225.437 82.4118 226.544L81.636 227.826C83.5126 228.96 85.5199 229.922 87.6427 230.688L88.1512 229.279C88.8932 229.547 89.6501 229.789 90.4212 230.004L91.1975 230.211C92.0282 230.422 92.8594 230.599 93.6899 230.743L93.4346 232.22C95.2092 232.526 96.9811 232.688 98.7371 232.712L98.7588 231.213C100.472 231.237 102.169 231.123 103.837 230.881L104.052 232.364C105.82 232.107 107.556 231.712 109.246 231.187L108.8 229.756C109.613 229.503 110.415 229.219 111.203 228.905C111.988 228.592 112.759 228.248 113.517 227.876L114.176 229.219C115.762 228.44 117.286 227.541 118.733 226.528L117.875 225.3C119.256 224.333 120.563 223.258 121.783 222.085L122.82 223.163C124.088 221.944 125.266 220.624 126.339 219.21L125.145 218.305C126.158 216.97 127.072 215.548 127.875 214.048L129.196 214.756C130.02 213.216 130.733 211.597 131.32 209.907L129.904 209.415C130.179 208.624 130.425 207.816 130.641 206.992L130.669 206.883L130.69 206.835L130.692 206.827L130.695 206.812C130.695 206.812 130.696 206.811 130.696 206.809L130.7 206.81L130.713 206.781ZM130.888 206.856L130.794 206.833L130.707 206.798C130.709 206.792 130.711 206.786 130.713 206.781M130.888 206.856L130.713 206.781M131.26 207.016L131.386 207.07L131.527 207.113L132.124 207.278C132.127 207.265 132.131 207.253 132.134 207.24L131.368 207.041L131.26 207.016ZM131.26 207.016L131.366 207.061L131.24 207.011L131.26 207.016ZM131.105 206.949L131.057 206.938L131.168 206.982L131.201 206.99L131.293 207.013L132.141 207.211L132.146 207.191L131.105 206.949ZM131.201 206.99L131.105 206.949M131.201 206.99L131.105 206.949M176.289 188.971L176.512 188.576L176.079 189.27L175.789 189.735C175.806 189.746 175.823 189.755 175.839 189.765L176.289 188.971ZM176.079 189.27L176.289 188.971M176.079 189.27L176.289 188.971M66.6595 190.465L66.2168 190.351L66.2156 190.351C66.2181 190.341 66.2199 190.331 66.2216 190.321L66.2237 190.321L66.4165 190.354L66.9511 190.49L67.5394 190.639L66.9346 190.535L66.6595 190.465ZM66.9511 190.49L66.6595 190.465M66.9511 190.49L66.6595 190.465M211.862 132.637L212.157 132.232L212.176 132.245L212.177 132.245L211.821 132.734L211.719 132.873L211.796 132.729L211.862 132.637ZM211.821 132.734L211.862 132.637M211.821 132.734L211.862 132.637M211.94 132.456L212.083 132.185C212.099 132.193 212.112 132.202 212.127 132.212L211.915 132.513L211.892 132.547L211.94 132.456ZM211.915 132.513L211.94 132.456M211.915 132.513L211.94 132.456M66.3854 190.442L66.2026 190.411L66.2095 190.381L66.4711 190.449L66.5535 190.471L66.3854 190.442ZM66.4711 190.449L66.3854 190.442M66.4711 190.449L66.3854 190.442M131.77 207.2L132.113 207.316C132.108 207.329 132.103 207.341 132.098 207.353L131.582 207.148L131.77 207.2ZM131.459 207.094L131.426 207.085L131.391 207.071L131.459 207.094ZM131.156 206.991L131.376 207.066L131.075 206.972L131.156 206.991ZM130.87 206.894L131.026 206.947L130.872 206.909L130.687 206.852L130.687 206.851L130.87 206.894ZM130.976 206.939L130.937 206.929L130.915 206.923L130.976 206.939ZM36.1957 153.863L36.2098 154.215L36.1944 154.216L36.1953 154.215L36.1843 153.972L36.1802 153.621L36.1957 153.863ZM36.1637 153.646L36.1712 154.216L36.1369 154.217L36.1314 153.752L36.1437 153.187L36.1637 153.646ZM36.1589 153.307L36.1601 153.397L36.1518 153.189L36.1589 153.307ZM31.7755 86.3152L31.7762 86.317L31.793 86.3776L31.8191 86.7751L31.7512 86.3227L31.7505 86.3209C31.7594 86.3196 31.7677 86.3173 31.7755 86.3152Z" fill="url(#paint0_linear_15_24)" stroke="#B6A2D4" stroke-width="3" stroke-dasharray="6 6"/>
<defs>
<linearGradient id="paint0_linear_15_24" x1="75.8246" y1="2.41976" x2="159.162" y2="211.417" gradientUnits="userSpaceOnUse">
<stop stop-color="#B6A2D4" stop-opacity="0.1"/>
<stop offset="1" stop-color="white" stop-opacity="0.5"/>
</linearGradient>
</defs>
</svg>
