<svg width="101" height="104" viewBox="0 0 101 104" fill="none" xmlns="http://www.w3.org/2000/svg">
<path d="M78.6955 82.7872L78.6969 82.7856C79.4633 83.264 80.2589 83.6552 81.0716 83.9635L80.5395 85.3658C82.4145 86.0769 84.3778 86.3902 86.3166 86.3308L86.2718 84.8315C88.0457 84.777 89.7973 84.3763 91.4185 83.654L92.0274 85.0229C93.7994 84.2336 95.4309 83.098 96.8106 81.6417L95.7229 80.6119C96.3206 79.9809 96.867 79.2821 97.3491 78.5179L97.3487 78.517C97.8315 77.7526 98.2278 76.9589 98.5402 76.1474L99.9394 76.685C100.66 74.8116 100.982 72.8484 100.931 70.9079L99.4327 70.948C99.3857 69.1727 98.992 67.4179 98.2757 65.792L99.6477 65.1882C98.865 63.4115 97.735 61.7736 96.2842 60.3864L95.2487 61.4701C94.6198 60.8687 93.9232 60.3192 93.1608 59.833L93.1114 59.8012L89.3788 57.4407L90.1801 56.1728L90.1797 56.1719L82.7153 51.4526L81.914 52.7204L78.1823 50.3594L76.4393 49.2577L78.0246 47.9391L81.4197 45.1134L82.3787 46.266L89.1685 40.6138L88.2104 39.4608L91.6055 36.6352L91.8629 36.4159C92.4564 35.8967 92.9931 35.3365 93.4732 34.7434L94.6378 35.6868C95.9038 34.1228 96.816 32.3493 97.3651 30.4823L95.9276 30.0598C96.4299 28.3519 96.5947 26.5569 96.411 24.786L97.9007 24.6304C97.6999 22.6954 97.1251 20.7864 96.1646 19.0188L94.8476 19.7342C94.4314 18.9682 93.9349 18.2306 93.3552 17.5338C92.7755 16.837 92.1404 16.2141 91.4631 15.6652L92.4064 14.5006C90.8431 13.2339 89.0713 12.3189 87.2054 11.7688L86.7815 13.2079C85.074 12.7045 83.2796 12.5392 81.5087 12.722L81.3542 11.2297C79.4196 11.4295 77.51 12.0037 75.7416 12.9631L76.4565 14.2813C75.6903 14.697 74.953 15.1939 74.2557 15.7729L74.2548 15.7732L70.8575 18.5934L69.9 17.4392L63.1037 23.0804L63.105 23.0809L64.0634 24.2348L60.6665 27.0559L59.0796 28.3731L58.3148 26.4576L56.6759 22.3528L58.0685 21.7954L54.7903 13.5848L53.3977 14.1422L51.7588 10.0373C51.4223 9.19581 51.0114 8.40672 50.5364 7.67567L51.7931 6.85916C50.697 5.17221 49.2933 3.75603 47.6887 2.65664L46.8414 3.89339C45.3729 2.88722 43.7176 2.17536 41.9777 1.80196L42.2909 0.335598C40.3889 -0.0723893 38.3954 -0.11654 36.4176 0.250008L36.6911 1.72426C35.8343 1.88304 34.9795 2.12816 34.1379 2.46374C33.2961 2.79943 32.5079 3.21037 31.7768 3.6849L30.9599 2.4273C29.2724 3.52271 27.8556 4.9264 26.7565 6.532L27.9941 7.37894C26.9886 8.84775 26.2768 10.5045 25.9042 12.2463L24.4383 11.9319C24.0312 13.8342 23.9876 15.8285 24.3538 17.8079L25.8284 17.5353C25.9871 18.3926 26.2315 19.2477 26.5665 20.0901L28.1988 24.1944L26.8052 24.7491L30.0695 32.9567L31.4632 32.4021L33.0965 36.506L33.8582 38.4216L31.8013 38.5574L27.3953 38.8477L27.295 37.3517L18.4832 37.9332L18.583 39.4304L14.2484 39.7154C14.2427 39.7161 14.2371 39.7172 14.2315 39.7179L14.2319 39.7188C14.2271 39.7194 14.2221 39.7188 14.2174 39.7193C14.2152 39.7196 14.2129 39.7207 14.2107 39.7209L14.2103 39.72C14.1873 39.7225 14.1651 39.725 14.1445 39.7263L14.0469 38.2292C14.0415 38.2296 14.0362 38.2294 14.0311 38.2292L14.0315 38.2301L14.0285 38.307L14.1265 39.7261C13.2244 39.7883 12.3497 39.9375 11.5102 40.1649L11.1173 38.7182C9.1802 39.243 7.40554 40.1418 5.87022 41.3288L6.78726 42.5159C5.38239 43.6022 4.19977 44.9564 3.31151 46.4945L2.01228 45.7436C1.04156 47.4244 0.387349 49.3039 0.126658 51.2948L1.61401 51.4892C1.50108 52.3516 1.47059 53.2384 1.52954 54.1407L1.55583 54.4782C1.62633 55.2614 1.76217 56.023 1.95813 56.758L0.509866 57.1441C1.02684 59.0831 1.91816 60.8606 3.09776 62.4002L4.28836 61.4892C5.36837 62.8987 6.71668 64.0875 8.24965 64.9823L7.4926 66.2767C9.16871 67.2552 11.0445 67.9168 13.0326 68.1867L13.2342 66.7018C14.0958 66.8187 14.9822 66.8532 15.8842 66.7984L15.8833 66.7987C15.8929 66.7981 15.9022 66.7975 15.9111 66.7971L15.9809 68.2958L15.98 68.2962C15.9836 68.296 15.9871 68.2962 15.9905 68.2962L15.9939 68.0436L15.9852 67.4709L15.943 66.7981L15.9615 66.797L15.9624 66.7967L15.9664 66.7961L15.9655 66.7965L20.349 66.5131L20.4453 68.0096L20.4444 68.01L29.2583 67.4392L29.162 65.9426L33.5681 65.6576L35.6252 65.5249L35.1191 67.5224L34.0349 71.8037L32.5811 71.435L32.5798 71.4345L30.4115 79.997L31.8662 80.3652L30.8023 84.568L30.8019 84.5776L30.7728 84.6944L30.695 85.024C30.5229 85.7917 30.42 86.559 30.3824 87.3196L28.8844 87.2462L28.8796 87.3396C28.7946 89.3126 29.1029 91.247 29.7477 93.047L31.1596 92.5408C31.7589 94.2138 32.6813 95.7586 33.8694 97.0796L32.754 98.0816C34.0528 99.526 35.6384 100.73 37.4513 101.594L38.0964 100.24C38.7837 100.567 39.5082 100.84 40.2656 101.053L40.5927 101.14C41.2917 101.317 41.9918 101.437 42.687 101.501L42.5474 102.994C44.1456 103.143 45.7262 103.031 47.2402 102.687L46.9086 101.226C47.6019 101.068 48.28 100.857 48.9367 100.596C49.9204 100.203 50.8559 99.6974 51.7219 99.0908L52.5807 100.319C54.484 98.986 56.0854 97.2129 57.2141 95.1041L55.8936 94.3974C56.3822 93.4843 56.7729 92.5002 57.047 91.4553L57.0754 91.3472L57.0805 91.3336L58.1679 87.0658L59.6202 87.436L61.8013 78.8737L60.348 78.5039L61.4374 74.2226L61.9472 72.2237L63.6916 73.3238L67.4289 75.6804L66.6276 76.9482L74.1017 81.6627L74.9022 80.393L78.6245 82.7409C78.6277 82.7428 78.6314 82.7448 78.6353 82.7471C78.6469 82.7538 78.658 82.7602 78.6683 82.7665L78.6674 82.7669L78.669 82.7684L78.6955 82.7872ZM78.6632 82.838L78.0423 83.8331L77.8982 84.0545L77.8973 84.0549C77.8939 84.0526 77.8907 84.0504 77.8873 84.0483L78.3591 83.2725L78.6669 82.7682C78.6757 82.774 78.6854 82.7802 78.6955 82.7872M78.6955 82.7872L78.6632 82.838M58.1305 91.6782L58.1799 91.6995L58.1201 91.676L58.1305 91.6782L58.1876 91.6923L58.5157 91.7769C58.5142 91.7826 58.5136 91.7885 58.5121 91.7942L58.2521 91.7222L58.1812 91.7M58.1812 91.7L58.1305 91.6782M58.1812 91.7L58.22 91.713L58.2002 91.7082L58.1812 91.7ZM58.1812 91.7L58.0866 91.6684L58.0505 91.6596L58.1812 91.7ZM78.3591 83.2725L78.6632 82.838M78.3591 83.2725L78.6632 82.838M58.0581 91.6471L58.034 91.642L58.0891 91.6642L58.1064 91.6679L58.519 91.7641L58.5219 91.7555L58.0581 91.6471ZM58.1064 91.6679L58.0581 91.6471M58.1064 91.6679L58.0581 91.6471M77.9837 83.8102L77.8495 84.0245C77.857 84.0293 77.8642 84.0336 77.8716 84.0378L78.0731 83.681M77.9837 83.8102L78.0731 83.681M77.9837 83.8102L78.0731 83.681M77.9837 83.8102L78.1692 83.5133L78.0731 83.681M57.8881 91.5741L57.8301 91.5604L57.9187 91.5955L57.9642 91.6068L58.5252 91.7427C58.5265 91.7371 58.5266 91.7313 58.5279 91.7258L57.8881 91.5741ZM57.9642 91.6068L57.8881 91.5741M57.9642 91.6068L57.8881 91.5741M57.5371 91.5006L57.406 91.4593L57.6281 91.5127L57.7594 91.5571L57.5781 91.5137L57.5371 91.5006ZM57.7594 91.5571L57.5371 91.5006M57.7594 91.5571L57.5371 91.5006M29.517 84.3477L29.3235 84.2976C29.3247 84.2929 29.3257 84.2884 29.3265 84.2839L29.3277 84.2844L29.4077 84.2977L29.6475 84.3587L29.9093 84.4247L29.6363 84.378L29.517 84.3477ZM29.6475 84.3587L29.517 84.3477M29.6475 84.3587L29.517 84.3477M93.8223 58.7419L93.9547 58.5598L93.963 58.5649L93.8048 58.7825L93.7598 58.8435L93.793 58.7819L93.8223 58.7419ZM93.8048 58.7825L93.8223 58.7419M93.8048 58.7825L93.8223 58.7419M93.8577 58.6594L93.9213 58.5394C93.928 58.5429 93.9341 58.5462 93.9405 58.5507L93.8463 58.686L93.8363 58.7005L93.8577 58.6594ZM93.8463 58.686L93.8577 58.6594M93.8463 58.686L93.8577 58.6594M29.3982 84.3373L29.3183 84.3239C29.319 84.3196 29.3191 84.315 29.3203 84.3105L29.4352 84.3404L29.4695 84.3498L29.3982 84.3373ZM29.4352 84.3404L29.3982 84.3373M29.4352 84.3404L29.3982 84.3373M58.3551 91.759L58.5059 91.8103C58.5039 91.816 58.5023 91.8217 58.5001 91.8273L58.2689 91.7355L58.3551 91.759ZM57.9528 91.6229L58.032 91.6502L57.9642 91.6331L57.8656 91.602L57.9528 91.6229ZM58.0079 91.6451L57.9881 91.6404L57.9784 91.6369L58.0079 91.6451ZM57.6558 91.5531L57.9162 91.6207L57.6482 91.5551L57.5634 91.5322L57.6558 91.5531ZM57.4009 91.4939L57.4198 91.499L57.3533 91.4824L57.4009 91.4939ZM93.0813 59.7785L93.0738 59.7731L93.3957 59.3304L93.0813 59.7785ZM16.0297 68.1387L16.0353 68.2952L16.0288 68.2946L16.024 68.1903L16.0223 68.0386L16.0297 68.1387ZM16.0151 68.0467L16.0186 68.2955L16.0177 68.2959L16.0028 68.2955L16.0007 68.0924L16.0064 67.843L16.0151 68.0467ZM16.0134 67.8949L16.013 67.9361L16.01 67.8416L16.0134 67.8949ZM15.9967 67.6419L15.9959 67.719L15.9949 67.6111L15.9967 67.6419ZM14.0726 38.2253L14.073 38.2262L14.0801 38.2517L14.0915 38.4333L14.0614 38.2287L14.061 38.2278C14.0652 38.2272 14.0691 38.2263 14.0726 38.2253Z" fill="url(#paint0_linear_37_56)" stroke="#B6A2D4" stroke-width="3" stroke-dasharray="6 6"/>
<defs>
<linearGradient id="paint0_linear_37_56" x1="33.5794" y1="1.0716" x2="70.4857" y2="93.6272" gradientUnits="userSpaceOnUse">
<stop stop-color="#B6A2D4" stop-opacity="0.1"/>
<stop offset="1" stop-color="white" stop-opacity="0.5"/>
</linearGradient>
</defs>
</svg>
