<svg width="234" height="233" viewBox="0 0 234 233" fill="none" xmlns="http://www.w3.org/2000/svg">
<path d="M128.49 2.32804L137.756 52.661L138.383 56.0638L141.018 53.8234L180.023 20.6659L221.432 69.3023L182.462 102.497L179.827 104.742L183.087 105.903L231.307 123.09L209.875 183.264L161.636 166.124L158.376 164.966L158.999 168.37L168.217 218.712L105.373 230.249L96.1069 179.916L95.4802 176.514L92.8444 178.754L53.8387 211.91L12.4294 163.274L51.4012 130.08L54.0354 127.836L50.7759 126.674L2.55441 109.487L23.9874 49.3138L72.2268 66.4531L75.4866 67.611L74.8637 64.2076L65.6462 13.8658L128.49 2.32804Z" fill="url(#paint0_linear_15_23)" stroke="#B6A2D4" stroke-width="4"/>
<defs>
<linearGradient id="paint0_linear_15_23" x1="96.7071" y1="6.12978" x2="137.156" y2="226.448" gradientUnits="userSpaceOnUse">
<stop stop-color="#B6A2D4" stop-opacity="0.1"/>
<stop offset="1" stop-color="white" stop-opacity="0.5"/>
</linearGradient>
</defs>
</svg>
