<svg width="98" height="96" viewBox="0 0 98 96" fill="none" xmlns="http://www.w3.org/2000/svg">
<path opacity="0.15" d="M38.9393 99.3182C42.0309 100.103 45.1492 99.8337 47.9122 98.732C52.0704 97.074 55.415 93.5341 56.6296 88.9038C56.6342 88.8932 56.6382 88.8824 56.6416 88.8713C56.6446 88.8604 56.6477 88.8495 56.6503 88.8387L56.6542 88.822C56.6571 88.8107 56.6596 88.7995 56.6622 88.7888L60.8834 72.2112L75.3532 81.3358C75.3679 81.3461 75.3818 81.353 75.3957 81.3613C75.4023 81.3651 75.4085 81.3691 75.4154 81.3737C82.2082 85.6141 91.1931 83.5623 95.4683 76.7852C99.7505 70.0059 97.7241 61.0071 90.9668 56.6981L90.9512 56.6868C90.9382 56.6772 90.928 56.6702 90.9141 56.6642L76.4617 47.5244L89.6092 36.5819C95.7852 31.4418 96.6307 22.2246 91.4903 16.0456C86.3505 9.8667 77.1419 9.01612 70.9565 14.1521L57.8013 25.0745L51.4546 9.17749C48.4706 1.71486 39.973 -1.93959 32.5103 1.03615C25.0476 4.01188 21.3962 12.5107 24.369 19.9857L30.69 35.8772L13.6285 37.0036C13.6225 37.006 13.6147 37.0076 13.6065 37.0085C13.596 37.0097 13.5847 37.0098 13.5756 37.009C5.57766 37.5601 -0.491748 44.5027 0.0314446 52.5072C0.554437 60.5113 7.47244 66.6014 15.4649 66.1154C15.4722 66.1147 15.479 66.1148 15.4856 66.1149L15.5143 66.1146L15.5272 66.114L32.5899 65.0104L28.3919 81.587C28.3912 81.5951 28.3889 81.6038 28.3866 81.6126C28.3841 81.6215 28.3818 81.6302 28.3811 81.6383C26.4361 89.4173 31.1672 97.3454 38.9393 99.3182Z" fill="#B6A2D4"/>
</svg>
