<svg width="204" height="190" viewBox="0 0 204 190" fill="none" xmlns="http://www.w3.org/2000/svg">
<path opacity="0.25" d="M128.49 -41.2163L137.756 9.1167L138.383 12.5194L141.018 10.2791L180.023 -22.8785L221.432 25.758L182.462 58.9531L179.827 61.1972L183.087 62.359L231.307 79.5455L209.875 139.719L161.636 122.58L158.376 121.422L158.999 124.825L168.217 175.167L105.372 186.705L96.1069 136.372L95.4802 132.969L92.8444 135.21L53.8387 168.365L12.4294 119.73L51.4012 86.5355L54.0354 84.2915L50.7759 83.1296L2.5544 65.9423L23.9873 5.76941L72.2268 22.9087L75.4866 24.0667L74.8637 20.6632L65.6462 -29.6786L128.49 -41.2163Z" stroke="#B6A2D4" stroke-width="4"/>
</svg>
