<svg width="217" height="186" viewBox="0 0 217 186" fill="none" xmlns="http://www.w3.org/2000/svg">
<path opacity="0.15" d="M119.037 -18.2666L127.602 28.266L128.229 31.6687L130.865 29.4284L166.924 -1.22562L205.136 43.655L169.108 74.344L166.473 76.5882L169.733 77.75L214.313 93.639L194.535 149.166L149.939 133.321L146.679 132.163L147.302 135.566L155.824 182.107L97.8319 192.754L89.2661 146.221L88.6394 142.819L86.0035 145.059L49.9428 175.711L11.7311 130.831L47.7594 100.143L50.3945 97.8993L47.1341 96.7375L2.55439 80.8475L22.3324 25.3213L66.9297 41.1664L70.1894 42.3243L69.5666 38.9209L61.0449 -7.61982L119.037 -18.2666Z" stroke="#B6A2D4" stroke-width="4"/>
</svg>
