<svg width="16" height="16" viewBox="0 0 16 16" fill="none" xmlns="http://www.w3.org/2000/svg">
<g clip-path="url(#clip0_25_38)">
<path d="M8.82 -2.00793e-06C8.72802 0.0273178 8.64046 0.0677321 8.56 0.119998L2.56 3.12C2.41938 3.16101 2.2895 3.23241 2.17952 3.32915C2.06954 3.4259 1.98216 3.54562 1.92355 3.67985C1.86493 3.81409 1.83653 3.95956 1.84033 4.10598C1.84414 4.2524 1.88006 4.3962 1.94557 4.52721C2.01107 4.65822 2.10456 4.77324 2.21941 4.86414C2.33427 4.95504 2.46769 5.01959 2.61024 5.05325C2.7528 5.0869 2.901 5.08883 3.04438 5.05889C3.18777 5.02895 3.32282 4.96788 3.44 4.88L9.44 1.88C9.65536 1.77289 9.82491 1.59174 9.91754 1.36976C10.0102 1.14779 10.0197 0.899856 9.94438 0.671426C9.86904 0.442996 9.7139 0.249373 9.50739 0.126053C9.30087 0.00273258 9.05683 -0.0420205 8.82 -2.00793e-06ZM10.82 3C10.728 3.02732 10.6405 3.06773 10.56 3.12L2.56 7.12C2.41938 7.16101 2.2895 7.23241 2.17952 7.32915C2.06954 7.4259 1.98216 7.54562 1.92355 7.67985C1.86493 7.81409 1.83653 7.95956 1.84033 8.10598C1.84414 8.2524 1.88006 8.3962 1.94557 8.52721C2.01107 8.65822 2.10456 8.77324 2.21941 8.86414C2.33427 8.95504 2.46769 9.0196 2.61024 9.05325C2.7528 9.0869 2.901 9.08883 3.04438 9.05889C3.18777 9.02895 3.32282 8.96788 3.44 8.88L11.44 4.88C11.6554 4.77289 11.8249 4.59174 11.9175 4.36976C12.0102 4.14779 12.0197 3.89986 11.9444 3.67143C11.869 3.443 11.7139 3.24937 11.5074 3.12605C11.3009 3.00273 11.0568 2.95798 10.82 3ZM10.82 7C10.728 7.02732 10.6405 7.06773 10.56 7.12L4.56 10.12C4.36646 10.2242 4.21262 10.3892 4.12228 10.5895C4.03194 10.7899 4.01013 11.0145 4.06022 11.2285C4.1103 11.4425 4.2295 11.634 4.39937 11.7735C4.56925 11.9129 4.78033 11.9925 5 12H9C9.13132 12.021 9.26549 12.016 9.39486 11.9851C9.52423 11.9543 9.64625 11.8982 9.75397 11.8202C9.86168 11.7422 9.95298 11.6438 10.0226 11.5305C10.0923 11.4172 10.139 11.2913 10.16 11.16C10.181 11.0287 10.1759 10.8945 10.1451 10.7651C10.1143 10.6358 10.0582 10.5137 9.98024 10.406C9.90224 10.2983 9.80379 10.207 9.6905 10.1373C9.57722 10.0677 9.45132 10.021 9.32 10L11.44 8.88C11.6554 8.77289 11.8249 8.59174 11.9175 8.36976C12.0102 8.14779 12.0197 7.89986 11.9444 7.67143C11.869 7.443 11.7139 7.24937 11.5074 7.12605C11.3009 7.00273 11.0568 6.95798 10.82 7ZM5.7 14C5.43478 14.0424 5.19728 14.1885 5.03975 14.406C4.88222 14.6236 4.81756 14.8948 4.86 15.16C4.90243 15.4252 5.04848 15.6627 5.26603 15.8202C5.48357 15.9778 5.75478 16.0424 6.02 16H8.02C8.28521 16 8.53957 15.8946 8.7271 15.7071C8.91464 15.5196 9.02 15.2652 9.02 15C9.02 14.7348 8.91464 14.4804 8.7271 14.2929C8.53957 14.1054 8.28521 14 8.02 14H6.02C5.96012 13.9946 5.89987 13.9946 5.84 14H5.72H5.7Z" fill="#B6A2D4"/>
</g>
<defs>
<clipPath id="clip0_25_38">
<rect width="16" height="16" fill="white"/>
</clipPath>
</defs>
</svg>
