<svg width="168" height="157" viewBox="0 0 168 157" fill="none" xmlns="http://www.w3.org/2000/svg">
<g opacity="0.1" clip-path="url(#clip0_28_97)">
<path d="M108.406 8.54628C107.585 8.5684 106.771 8.70861 105.99 8.96257L49.7169 20.478C48.4631 20.5055 47.2306 20.8082 46.1066 21.3646C44.9826 21.921 43.9946 22.7176 43.2123 23.6979C42.4301 24.6782 41.8728 25.8184 41.5797 27.0379C41.2867 28.2574 41.2652 29.5263 41.5166 30.755C41.768 31.9837 42.2863 33.1422 43.0348 34.1485C43.7833 35.1548 44.7437 35.9845 45.8482 36.5787C46.9526 37.173 48.1741 37.5173 49.4264 37.5875C50.6786 37.6576 51.9309 37.4518 53.0948 36.9847L109.368 25.4693C111.386 25.0607 113.19 23.9382 114.448 22.3076C115.706 20.6769 116.334 18.6475 116.218 16.5913C116.101 14.535 115.247 12.5898 113.812 11.1122C112.377 9.63458 110.458 8.72361 108.406 8.54628ZM118.299 37.7908C117.478 37.8129 116.664 37.9531 115.883 38.2071L40.8524 53.5609C39.5985 53.5885 38.366 53.8912 37.242 54.4476C36.118 55.004 35.13 55.8005 34.3478 56.7809C33.5655 57.7612 33.0082 58.9014 32.7152 60.1209C32.4222 61.3403 32.4006 62.6093 32.652 63.838C32.9035 65.0667 33.4218 66.2251 34.1703 67.2315C34.9188 68.2378 35.8792 69.0674 36.9836 69.6617C38.0881 70.2559 39.3096 70.6003 40.5618 70.6705C41.814 70.7406 43.0663 70.5348 44.2302 70.0676L119.261 54.7138C121.279 54.3052 123.083 53.1827 124.341 51.5521C125.599 49.9214 126.227 47.892 126.111 45.8358C125.994 43.7795 125.14 41.8343 123.705 40.3567C122.27 38.8791 120.351 37.9681 118.299 37.7908ZM109.435 70.8737C108.613 70.8959 107.8 71.0361 107.018 71.29L50.7455 82.8054C48.9139 83.238 47.2759 84.2619 46.0847 85.7189C44.8935 87.1758 44.2154 88.9846 44.1554 90.8656C44.0954 92.7466 44.6567 94.595 45.7527 96.1249C46.8486 97.6548 48.418 98.7811 50.2182 99.3295L83.3012 108.194C84.3408 108.659 85.4617 108.914 86.6 108.946C87.7383 108.978 88.8717 108.785 89.9355 108.378C90.9992 107.972 91.9725 107.36 92.7997 106.577C93.627 105.795 94.292 104.857 94.7568 103.817C95.2216 102.778 95.4771 101.657 95.5087 100.519C95.5403 99.3803 95.3474 98.2469 94.941 97.1831C94.5346 96.1194 93.9226 95.1461 93.1401 94.3188C92.3575 93.4916 91.4197 92.8266 90.3801 92.3617L110.396 87.7967C112.415 87.3881 114.218 86.2656 115.477 84.635C116.735 83.0044 117.363 80.975 117.246 78.9187C117.129 76.8625 116.275 74.9173 114.841 73.4396C113.406 71.962 111.487 71.0511 109.435 70.8737ZM51.5755 117.422C49.2879 117.185 47 117.867 45.215 119.317C43.43 120.767 42.2941 122.867 42.0574 125.155C41.8206 127.442 42.5022 129.73 43.9523 131.515C45.4025 133.3 47.5023 134.436 49.7898 134.673L66.3313 139.105C68.5249 139.693 70.862 139.385 72.8287 138.25C74.7954 137.114 76.2305 135.244 76.8182 133.051C77.406 130.857 77.0983 128.52 75.9628 126.553C74.8274 124.587 72.9571 123.151 70.7636 122.564L54.2221 118.131C53.7389 117.954 53.2406 117.82 52.7334 117.733L51.7409 117.467L51.5755 117.422Z" fill="#B6A2D4"/>
</g>
<defs>
<clipPath id="clip0_28_97">
<rect width="137" height="137" fill="white" transform="translate(35.4582 -11) rotate(15)"/>
</clipPath>
</defs>
</svg>
