<svg width="121" height="64" viewBox="0 0 121 64" fill="none" xmlns="http://www.w3.org/2000/svg">
<path d="M1.792 31.48V3H10.304V6.104H5.44V28.376H10.304V31.48H1.792ZM12.7295 27V4.6H16.4415V14.008H21.0175L26.4895 4.6H30.7135L24.3775 15.16L31.1935 27H26.9695L21.4015 17.272H16.4415V27H12.7295ZM32.9438 23.864V12.216L36.0798 9.08H45.8078L48.9438 12.216V23.864L45.8078 27H36.0798L32.9438 23.864ZM36.6558 23.864H45.2318V12.216H36.6558V23.864ZM53.2193 31.48V28.28H64.5473V24.44H55.2673L52.1313 21.304V12.216L55.5233 9.08H68.2593V28.024L64.8033 31.48H53.2193ZM55.8433 12.28V21.304H64.5473V12.28H55.8433ZM79.2145 3V31.48H70.7025V28.376H75.5665V6.104H70.7025V3H79.2145ZM1.792 59V36.6H6.368L12.48 47.832L18.592 36.6H23.168V59H19.52V41.24L13.504 52.216H11.456L5.44 41.24V59H1.792ZM26.5688 55.864V44.216L29.7048 41.08H42.2488V51.064H30.2808V55.8H41.6088V59H29.7048L26.5688 55.864ZM30.2808 48.696L38.8888 48.376V44.152H30.2808V48.696ZM45.6358 59V41.08H49.3478V48.408H58.2438V41.08H61.9558V59H58.2438V51.64H49.3478V59H45.6358ZM74.566 59H70.854V44.344H64.39V41.08H81.03V44.344H74.566V59ZM83.2563 55.864V44.216L86.3923 41.08H96.1203L99.2563 44.216V55.864L96.1203 59H86.3923L83.2563 55.864ZM86.9683 55.864H95.5443V44.216H86.9683V55.864ZM102.636 63.48V41.08H115.82L119.084 44.344V55.736L115.82 59H106.348V63.48H102.636ZM115.372 44.28H106.348V55.8H115.372V44.28Z" fill="white"/>
<path d="M90.8296 9.2941L86 8" stroke="#B6A2D4" stroke-width="3" stroke-linecap="round"/>
<path d="M114.076 9.2941L118.905 8" stroke="#B6A2D4" stroke-width="3" stroke-linecap="round"/>
<path d="M90.9053 15.865L85.9243 15.4292" stroke="#B6A2D4" stroke-width="3" stroke-linecap="round"/>
<path d="M114 15.865L118.981 15.4292" stroke="#B6A2D4" stroke-width="3" stroke-linecap="round"/>
<path d="M90.6985 22.9999L86 24.71" stroke="#B6A2D4" stroke-width="3" stroke-linecap="round"/>
<path d="M114.207 22.9999L118.905 24.71" stroke="#B6A2D4" stroke-width="3" stroke-linecap="round"/>
<g clip-path="url(#clip0_28_63)">
<path d="M105.23 7.00012C105.092 7.0411 104.961 7.10172 104.84 7.18012L95.84 11.6801C95.6291 11.7416 95.4342 11.8487 95.2693 11.9939C95.1043 12.139 94.9732 12.3185 94.8853 12.5199C94.7974 12.7213 94.7548 12.9395 94.7605 13.1591C94.7662 13.3787 94.8201 13.5944 94.9184 13.7909C95.0166 13.9875 95.1568 14.16 95.3291 14.2963C95.5014 14.4327 95.7015 14.5295 95.9154 14.58C96.1292 14.6305 96.3515 14.6334 96.5666 14.5885C96.7816 14.5435 96.9842 14.4519 97.16 14.3201L106.16 9.82012C106.483 9.65945 106.737 9.38773 106.876 9.05477C107.015 8.7218 107.03 8.34991 106.917 8.00726C106.804 7.66462 106.571 7.37418 106.261 7.1892C105.951 7.00422 105.585 6.93709 105.23 7.00012ZM108.23 11.5001C108.092 11.5411 107.961 11.6017 107.84 11.6801L95.84 17.6801C95.6291 17.7416 95.4342 17.8487 95.2693 17.9939C95.1043 18.139 94.9732 18.3185 94.8853 18.5199C94.7974 18.7213 94.7548 18.9395 94.7605 19.1591C94.7662 19.3787 94.8201 19.5944 94.9184 19.7909C95.0166 19.9875 95.1568 20.16 95.3291 20.2963C95.5014 20.4327 95.7015 20.5295 95.9154 20.58C96.1292 20.6305 96.3515 20.6334 96.5666 20.5885C96.7816 20.5435 96.9842 20.4519 97.16 20.3201L109.16 14.3201C109.483 14.1595 109.737 13.8877 109.876 13.5548C110.015 13.2218 110.03 12.8499 109.917 12.5073C109.804 12.1646 109.571 11.8742 109.261 11.6892C108.951 11.5042 108.585 11.4371 108.23 11.5001ZM108.23 17.5001C108.092 17.5411 107.961 17.6017 107.84 17.6801L98.84 22.1801C98.5497 22.3364 98.3189 22.5839 98.1834 22.8844C98.0479 23.185 98.0152 23.5218 98.0903 23.8428C98.1655 24.1638 98.3442 24.4511 98.5991 24.6603C98.8539 24.8695 99.1705 24.9889 99.5 25.0001H105.5C105.697 25.0316 105.898 25.024 106.092 24.9778C106.286 24.9315 106.469 24.8475 106.631 24.7305C106.793 24.6135 106.929 24.4658 107.034 24.2959C107.138 24.1259 107.208 23.9371 107.24 23.7401C107.272 23.5431 107.264 23.3419 107.218 23.1478C107.171 22.9538 107.087 22.7707 106.97 22.6092C106.853 22.4476 106.706 22.3106 106.536 22.2061C106.366 22.1016 106.177 22.0316 105.98 22.0001L109.16 20.3201C109.483 20.1595 109.737 19.8877 109.876 19.5548C110.015 19.2218 110.03 18.8499 109.917 18.5073C109.804 18.1646 109.571 17.8742 109.261 17.6892C108.951 17.5042 108.585 17.4371 108.23 17.5001ZM100.55 28.0001C100.152 28.0638 99.7959 28.2829 99.5596 28.6092C99.3233 28.9355 99.2263 29.3423 99.29 29.7401C99.3536 30.1379 99.5727 30.4942 99.899 30.7305C100.225 30.9668 100.632 31.0638 101.03 31.0001H104.03C104.428 31.0001 104.809 30.8421 105.091 30.5608C105.372 30.2795 105.53 29.8979 105.53 29.5001C105.53 29.1023 105.372 28.7208 105.091 28.4395C104.809 28.1582 104.428 28.0001 104.03 28.0001H101.03C100.94 27.992 100.85 27.992 100.76 28.0001H100.58H100.55Z" fill="#B6A2D4"/>
</g>
<defs>
<clipPath id="clip0_28_63">
<rect width="24" height="24" fill="white" transform="translate(92 7)"/>
</clipPath>
</defs>
</svg>
