<svg width="121" height="64" viewBox="0 0 121 64" fill="none" xmlns="http://www.w3.org/2000/svg">
<path d="M1.792 31.48V3H10.304V6.104H5.44V28.376H10.304V31.48H1.792ZM12.7295 27V4.6H16.4415V14.008H21.0175L26.4895 4.6H30.7135L24.3775 15.16L31.1935 27H26.9695L21.4015 17.272H16.4415V27H12.7295ZM32.9438 23.864V12.216L36.0798 9.08H45.8078L48.9438 12.216V23.864L45.8078 27H36.0798L32.9438 23.864ZM36.6558 23.864H45.2318V12.216H36.6558V23.864ZM53.2193 31.48V28.28H64.5473V24.44H55.2673L52.1313 21.304V12.216L55.5233 9.08H68.2593V28.024L64.8033 31.48H53.2193ZM55.8433 12.28V21.304H64.5473V12.28H55.8433ZM79.2145 3V31.48H70.7025V28.376H75.5665V6.104H70.7025V3H79.2145ZM1.792 59V36.6H6.368L12.48 47.832L18.592 36.6H23.168V59H19.52V41.24L13.504 52.216H11.456L5.44 41.24V59H1.792ZM26.5688 55.864V44.216L29.7048 41.08H42.2488V51.064H30.2808V55.8H41.6088V59H29.7048L26.5688 55.864ZM30.2808 48.696L38.8888 48.376V44.152H30.2808V48.696ZM45.6358 59V41.08H49.3478V48.408H58.2438V41.08H61.9558V59H58.2438V51.64H49.3478V59H45.6358ZM74.566 59H70.854V44.344H64.39V41.08H81.03V44.344H74.566V59ZM83.2563 55.864V44.216L86.3923 41.08H96.1203L99.2563 44.216V55.864L96.1203 59H86.3923L83.2563 55.864ZM86.9683 55.864H95.5443V44.216H86.9683V55.864ZM102.636 63.48V41.08H115.82L119.084 44.344V55.736L115.82 59H106.348V63.48H102.636ZM115.372 44.28H106.348V55.8H115.372V44.28Z" fill="#260686"/>
<path d="M90.8296 9.2941L86 8" stroke="#B6A2D4" stroke-width="3" stroke-linecap="round"/>
<path d="M114.076 9.2941L118.905 8" stroke="#B6A2D4" stroke-width="3" stroke-linecap="round"/>
<path d="M90.9053 15.865L85.9243 15.4292" stroke="#B6A2D4" stroke-width="3" stroke-linecap="round"/>
<path d="M114 15.865L118.981 15.4292" stroke="#B6A2D4" stroke-width="3" stroke-linecap="round"/>
<path d="M90.6985 23L86 24.7101" stroke="#B6A2D4" stroke-width="3" stroke-linecap="round"/>
<path d="M114.207 23L118.905 24.7101" stroke="#B6A2D4" stroke-width="3" stroke-linecap="round"/>
<g clip-path="url(#clip0_236_118)">
<path d="M105.23 7C105.092 7.04098 104.961 7.1016 104.84 7.18L95.84 11.68C95.6291 11.7415 95.4342 11.8486 95.2693 11.9937C95.1043 12.1388 94.9732 12.3184 94.8853 12.5198C94.7974 12.7211 94.7548 12.9393 94.7605 13.159C94.7662 13.3786 94.8201 13.5943 94.9184 13.7908C95.0166 13.9873 95.1568 14.1599 95.3291 14.2962C95.5014 14.4326 95.7015 14.5294 95.9154 14.5799C96.1292 14.6304 96.3515 14.6332 96.5666 14.5883C96.7816 14.5434 96.9842 14.4518 97.16 14.32L106.16 9.82C106.483 9.65933 106.737 9.38761 106.876 9.05465C107.015 8.72168 107.03 8.34979 106.917 8.00714C106.804 7.6645 106.571 7.37406 106.261 7.18908C105.951 7.0041 105.585 6.93697 105.23 7ZM108.23 11.5C108.092 11.541 107.961 11.6016 107.84 11.68L95.84 17.68C95.6291 17.7415 95.4342 17.8486 95.2693 17.9937C95.1043 18.1388 94.9732 18.3184 94.8853 18.5198C94.7974 18.7211 94.7548 18.9393 94.7605 19.159C94.7662 19.3786 94.8201 19.5943 94.9184 19.7908C95.0166 19.9873 95.1568 20.1599 95.3291 20.2962C95.5014 20.4326 95.7015 20.5294 95.9154 20.5799C96.1292 20.6304 96.3515 20.6332 96.5666 20.5883C96.7816 20.5434 96.9842 20.4518 97.16 20.32L109.16 14.32C109.483 14.1593 109.737 13.8876 109.876 13.5546C110.015 13.2217 110.03 12.8498 109.917 12.5071C109.804 12.1645 109.571 11.8741 109.261 11.6891C108.951 11.5041 108.585 11.437 108.23 11.5ZM108.23 17.5C108.092 17.541 107.961 17.6016 107.84 17.68L98.84 22.18C98.5497 22.3362 98.3189 22.5838 98.1834 22.8843C98.0479 23.1849 98.0152 23.5217 98.0903 23.8427C98.1655 24.1637 98.3442 24.451 98.5991 24.6602C98.8539 24.8694 99.1705 24.9888 99.5 25H105.5C105.697 25.0315 105.898 25.0239 106.092 24.9777C106.286 24.9314 106.469 24.8474 106.631 24.7304C106.793 24.6134 106.929 24.4657 107.034 24.2958C107.138 24.1258 107.208 23.937 107.24 23.74C107.272 23.543 107.264 23.3418 107.218 23.1477C107.171 22.9537 107.087 22.7706 106.97 22.609C106.853 22.4475 106.706 22.3105 106.536 22.206C106.366 22.1015 106.177 22.0315 105.98 22L109.16 20.32C109.483 20.1593 109.737 19.8876 109.876 19.5546C110.015 19.2217 110.03 18.8498 109.917 18.5071C109.804 18.1645 109.571 17.8741 109.261 17.6891C108.951 17.5041 108.585 17.437 108.23 17.5ZM100.55 28C100.152 28.0637 99.7959 28.2827 99.5596 28.609C99.3233 28.9354 99.2263 29.3422 99.29 29.74C99.3536 30.1378 99.5727 30.4941 99.899 30.7304C100.225 30.9667 100.632 31.0637 101.03 31H104.03C104.428 31 104.809 30.842 105.091 30.5607C105.372 30.2794 105.53 29.8978 105.53 29.5C105.53 29.1022 105.372 28.7206 105.091 28.4393C104.809 28.158 104.428 28 104.03 28H101.03C100.94 27.9919 100.85 27.9919 100.76 28H100.58H100.55Z" fill="#B6A2D4"/>
</g>
<defs>
<clipPath id="clip0_236_118">
<rect width="24" height="24" fill="white" transform="translate(92 7)"/>
</clipPath>
</defs>
</svg>
